<mxfile host="app.diagrams.net" agent="Mozilla/5.0 (Windows NT 10.0; Win64; x64) AppleWebKit/537.36 (KHTML, like Gecko) Chrome/131.0.0.0 Safari/537.36" version="25.0.3">
  <diagram id="C5RBs43oDa-KdzZeNtuy" name="Page-1">
    <mxGraphModel dx="7000" dy="4649" grid="0" gridSize="10" guides="1" tooltips="1" connect="0" arrows="0" fold="1" page="1" pageScale="1" pageWidth="827" pageHeight="1169" math="0" shadow="0">
      <root>
        <mxCell id="WIyWlLk6GJQsqaUBKTNV-0" />
        <mxCell id="WIyWlLk6GJQsqaUBKTNV-1" parent="WIyWlLk6GJQsqaUBKTNV-0" />
        <mxCell id="kNPgMg_u-2HI5fr7H4LX-2" value="" style="endArrow=classic;html=1;rounded=0;strokeWidth=1.1810999999999998;strokeColor=#000000;fontSize=10;" parent="WIyWlLk6GJQsqaUBKTNV-1" source="kNPgMg_u-2HI5fr7H4LX-3" target="hmyyv367jjp7cWTAJNR_-0" edge="1">
          <mxGeometry width="50" height="50" relative="1" as="geometry">
            <mxPoint x="552.2650000000001" y="-1097.945" as="sourcePoint" />
            <mxPoint x="552.27" y="-1068" as="targetPoint" />
          </mxGeometry>
        </mxCell>
        <mxCell id="kNPgMg_u-2HI5fr7H4LX-3" value="&lt;span style=&quot;font-size: 10px;&quot;&gt;Початок&lt;/span&gt;" style="rounded=1;whiteSpace=wrap;html=1;arcSize=50;" parent="WIyWlLk6GJQsqaUBKTNV-1" vertex="1">
          <mxGeometry x="330" y="-1147" width="118.11" height="59.055" as="geometry" />
        </mxCell>
        <mxCell id="kNPgMg_u-2HI5fr7H4LX-4" value="Вивід x" style="shape=parallelogram;perimeter=parallelogramPerimeter;whiteSpace=wrap;html=1;fixedSize=1;strokeWidth=1.1810999999999998;strokeColor=#000000;fontSize=10;" parent="WIyWlLk6GJQsqaUBKTNV-1" vertex="1">
          <mxGeometry x="330" y="-206" width="118.11" height="59.055" as="geometry" />
        </mxCell>
        <mxCell id="kNPgMg_u-2HI5fr7H4LX-6" value="Цикл 1&lt;div&gt;row = start&lt;/div&gt;&lt;div&gt;row &amp;lt;= end&lt;/div&gt;&lt;div&gt;row += rowStep&lt;/div&gt;" style="shape=loopLimit;whiteSpace=wrap;html=1;strokeWidth=1.1810999999999998;strokeColor=#000000;fontSize=10;" parent="WIyWlLk6GJQsqaUBKTNV-1" vertex="1">
          <mxGeometry x="330" y="-638" width="118.11" height="59.055" as="geometry" />
        </mxCell>
        <mxCell id="kNPgMg_u-2HI5fr7H4LX-11" value="" style="endArrow=classic;html=1;rounded=0;strokeWidth=1.1810999999999998;strokeColor=#000000;fontSize=10;" parent="WIyWlLk6GJQsqaUBKTNV-1" source="hmyyv367jjp7cWTAJNR_-6" target="hmyyv367jjp7cWTAJNR_-8" edge="1">
          <mxGeometry width="50" height="50" relative="1" as="geometry">
            <mxPoint x="156.46999999999997" y="-622" as="sourcePoint" />
            <mxPoint x="156.475" y="-592" as="targetPoint" />
          </mxGeometry>
        </mxCell>
        <mxCell id="kNPgMg_u-2HI5fr7H4LX-19" value="" style="endArrow=classic;html=1;rounded=0;strokeWidth=1.1810999999999998;strokeColor=#000000;fontSize=10;" parent="WIyWlLk6GJQsqaUBKTNV-1" source="hmyyv367jjp7cWTAJNR_-13" edge="1">
          <mxGeometry width="50" height="50" relative="1" as="geometry">
            <mxPoint x="246.09000000000003" y="-566.1099999999999" as="sourcePoint" />
            <mxPoint x="389.0549999999994" y="-469" as="targetPoint" />
          </mxGeometry>
        </mxCell>
        <mxCell id="kNPgMg_u-2HI5fr7H4LX-25" value="" style="endArrow=classic;html=1;rounded=0;strokeWidth=1.1810999999999998;strokeColor=#000000;fontSize=10;" parent="WIyWlLk6GJQsqaUBKTNV-1" source="hmyyv367jjp7cWTAJNR_-4" target="kNPgMg_u-2HI5fr7H4LX-6" edge="1">
          <mxGeometry width="50" height="50" relative="1" as="geometry">
            <mxPoint x="372.22" y="-481.0600000000002" as="sourcePoint" />
            <mxPoint x="372.48" y="-439.1700000000001" as="targetPoint" />
          </mxGeometry>
        </mxCell>
        <mxCell id="kNPgMg_u-2HI5fr7H4LX-31" value="" style="endArrow=classic;html=1;rounded=0;strokeWidth=1.1810999999999998;strokeColor=#000000;fontSize=10;" parent="WIyWlLk6GJQsqaUBKTNV-1" source="hmyyv367jjp7cWTAJNR_-10" target="kNPgMg_u-2HI5fr7H4LX-4" edge="1">
          <mxGeometry width="50" height="50" relative="1" as="geometry">
            <mxPoint x="509.91499999999996" y="-297.0049999999999" as="sourcePoint" />
            <mxPoint x="509.91999999999985" y="-267.05999999999995" as="targetPoint" />
          </mxGeometry>
        </mxCell>
        <mxCell id="kNPgMg_u-2HI5fr7H4LX-34" value="" style="endArrow=classic;html=1;rounded=0;strokeWidth=1.1810999999999998;strokeColor=#000000;fontSize=10;" parent="WIyWlLk6GJQsqaUBKTNV-1" source="kNPgMg_u-2HI5fr7H4LX-4" target="YRZOW5KyqNtPnrEBrNmd-8" edge="1">
          <mxGeometry width="50" height="50" relative="1" as="geometry">
            <mxPoint x="505.5899999999999" y="-138.83999999999992" as="sourcePoint" />
            <mxPoint x="505.64999999999986" y="-108.83999999999992" as="targetPoint" />
          </mxGeometry>
        </mxCell>
        <mxCell id="kNPgMg_u-2HI5fr7H4LX-36" value="" style="endArrow=classic;html=1;rounded=0;strokeWidth=1.1810999999999998;strokeColor=#000000;fontSize=10;" parent="WIyWlLk6GJQsqaUBKTNV-1" source="kNPgMg_u-2HI5fr7H4LX-26" target="kNPgMg_u-2HI5fr7H4LX-49" edge="1">
          <mxGeometry width="50" height="50" relative="1" as="geometry">
            <mxPoint x="498.8699999999999" y="202.72000000000003" as="sourcePoint" />
            <mxPoint x="382.0550000000003" y="220.00000000000045" as="targetPoint" />
          </mxGeometry>
        </mxCell>
        <mxCell id="hmyyv367jjp7cWTAJNR_-0" value="start = -5" style="rounded=0;whiteSpace=wrap;html=1;strokeWidth=1.1810999999999998;strokeColor=#000000;fontSize=10;" parent="WIyWlLk6GJQsqaUBKTNV-1" vertex="1">
          <mxGeometry x="330" y="-1062" width="118.11" height="59.055" as="geometry" />
        </mxCell>
        <mxCell id="hmyyv367jjp7cWTAJNR_-1" value="" style="endArrow=classic;html=1;rounded=0;strokeWidth=1.1810999999999998;strokeColor=#000000;fontSize=10;" parent="WIyWlLk6GJQsqaUBKTNV-1" source="hmyyv367jjp7cWTAJNR_-0" target="YRZOW5KyqNtPnrEBrNmd-0" edge="1">
          <mxGeometry width="50" height="50" relative="1" as="geometry">
            <mxPoint x="389.5" y="-1007.95" as="sourcePoint" />
            <mxPoint x="389.0550000000003" y="-978" as="targetPoint" />
          </mxGeometry>
        </mxCell>
        <mxCell id="hmyyv367jjp7cWTAJNR_-2" value="colls = 10" style="rounded=0;whiteSpace=wrap;html=1;strokeWidth=1.1810999999999998;strokeColor=#000000;fontSize=10;" parent="WIyWlLk6GJQsqaUBKTNV-1" vertex="1">
          <mxGeometry x="330" y="-808" width="118.11" height="59.055" as="geometry" />
        </mxCell>
        <mxCell id="hmyyv367jjp7cWTAJNR_-3" value="" style="endArrow=classic;html=1;rounded=0;strokeWidth=1.1810999999999998;strokeColor=#000000;fontSize=10;" parent="WIyWlLk6GJQsqaUBKTNV-1" source="hmyyv367jjp7cWTAJNR_-2" target="hmyyv367jjp7cWTAJNR_-4" edge="1">
          <mxGeometry width="50" height="50" relative="1" as="geometry">
            <mxPoint x="389.5" y="-754.28" as="sourcePoint" />
            <mxPoint x="552.27" y="-734.23" as="targetPoint" />
          </mxGeometry>
        </mxCell>
        <mxCell id="hmyyv367jjp7cWTAJNR_-4" value="collStep = rowStep / colls" style="rounded=0;whiteSpace=wrap;html=1;strokeWidth=1.1810999999999998;strokeColor=#000000;fontSize=10;" parent="WIyWlLk6GJQsqaUBKTNV-1" vertex="1">
          <mxGeometry x="330" y="-723" width="118.11" height="59.055" as="geometry" />
        </mxCell>
        <mxCell id="hmyyv367jjp7cWTAJNR_-5" value="" style="group" parent="WIyWlLk6GJQsqaUBKTNV-1" vertex="1" connectable="0">
          <mxGeometry x="330" y="130.00000000000023" width="118.11000000000001" height="59.05499999999995" as="geometry" />
        </mxCell>
        <mxCell id="hmyyv367jjp7cWTAJNR_-15" value="" style="group" parent="hmyyv367jjp7cWTAJNR_-5" vertex="1" connectable="0">
          <mxGeometry y="-1.2079226507921703e-13" width="118.11000000000001" height="59.055000000000014" as="geometry" />
        </mxCell>
        <mxCell id="kNPgMg_u-2HI5fr7H4LX-26" value="" style="shape=loopLimit;whiteSpace=wrap;html=1;strokeWidth=1.1810999999999998;strokeColor=#000000;rotation=-180;fontSize=10;container=1;" parent="hmyyv367jjp7cWTAJNR_-15" vertex="1">
          <mxGeometry x="7.105427357601002e-15" y="7.105427357601002e-15" width="118.11" height="59.055" as="geometry" />
        </mxCell>
        <mxCell id="kNPgMg_u-2HI5fr7H4LX-27" value="&lt;div style=&quot;font-size: 10px;&quot;&gt;Кінець циклу 1&lt;/div&gt;" style="text;html=1;align=center;verticalAlign=middle;whiteSpace=wrap;rounded=0;fontSize=10;" parent="hmyyv367jjp7cWTAJNR_-15" vertex="1">
          <mxGeometry x="0.05000000000000426" y="14.529999999999951" width="118.01" height="30" as="geometry" />
        </mxCell>
        <mxCell id="hmyyv367jjp7cWTAJNR_-6" value="Цикл 2&lt;div&gt;col = 0&lt;/div&gt;&lt;div&gt;col &amp;lt; colls&lt;br&gt;&lt;/div&gt;&lt;div&gt;col= col +1&lt;br&gt;&lt;/div&gt;" style="shape=loopLimit;whiteSpace=wrap;html=1;strokeWidth=1.1810999999999998;strokeColor=#000000;fontSize=10;" parent="WIyWlLk6GJQsqaUBKTNV-1" vertex="1">
          <mxGeometry x="330" y="-466" width="118.11" height="59.055" as="geometry" />
        </mxCell>
        <mxCell id="hmyyv367jjp7cWTAJNR_-7" value="" style="group" parent="WIyWlLk6GJQsqaUBKTNV-1" vertex="1" connectable="0">
          <mxGeometry x="329.98" y="222.99999999999977" width="118.15000000000003" height="59.055000000000234" as="geometry" />
        </mxCell>
        <mxCell id="hmyyv367jjp7cWTAJNR_-16" value="" style="group" parent="hmyyv367jjp7cWTAJNR_-7" vertex="1" connectable="0">
          <mxGeometry x="0.01999999999998181" y="2.2026824808563106e-13" width="118.11000000000001" height="59.055000000000014" as="geometry" />
        </mxCell>
        <mxCell id="kNPgMg_u-2HI5fr7H4LX-49" value="" style="shape=loopLimit;whiteSpace=wrap;html=1;strokeWidth=1.1810999999999998;strokeColor=#000000;rotation=-180;fontSize=10;container=1;" parent="hmyyv367jjp7cWTAJNR_-16" vertex="1">
          <mxGeometry x="7.105427357601002e-15" y="7.105427357601002e-15" width="118.11" height="59.055" as="geometry" />
        </mxCell>
        <mxCell id="kNPgMg_u-2HI5fr7H4LX-50" value="&lt;div style=&quot;font-size: 10px;&quot;&gt;Кінець циклу 2&lt;/div&gt;" style="text;html=1;align=center;verticalAlign=middle;whiteSpace=wrap;rounded=0;fontSize=10;" parent="hmyyv367jjp7cWTAJNR_-16" vertex="1">
          <mxGeometry x="0.05000000000000426" y="11.109999999999907" width="118.01" height="30" as="geometry" />
        </mxCell>
        <mxCell id="hmyyv367jjp7cWTAJNR_-8" value="x = row + col * collStep" style="rounded=0;whiteSpace=wrap;html=1;strokeWidth=1.1810999999999998;strokeColor=#000000;fontSize=10;" parent="WIyWlLk6GJQsqaUBKTNV-1" vertex="1">
          <mxGeometry x="330" y="-381" width="118.11" height="59.055" as="geometry" />
        </mxCell>
        <mxCell id="hmyyv367jjp7cWTAJNR_-12" value="" style="group" parent="WIyWlLk6GJQsqaUBKTNV-1" vertex="1" connectable="0">
          <mxGeometry x="330" y="-293" width="118.11000000000001" height="59.055" as="geometry" />
        </mxCell>
        <mxCell id="hmyyv367jjp7cWTAJNR_-18" value="" style="group" parent="hmyyv367jjp7cWTAJNR_-12" vertex="1" connectable="0">
          <mxGeometry width="118.11000000000001" height="59.055" as="geometry" />
        </mxCell>
        <mxCell id="hmyyv367jjp7cWTAJNR_-29" value="" style="group" parent="hmyyv367jjp7cWTAJNR_-18" vertex="1" connectable="0">
          <mxGeometry width="118.11000000000001" height="59.055" as="geometry" />
        </mxCell>
        <mxCell id="hmyyv367jjp7cWTAJNR_-10" value="&amp;nbsp; x =&amp;nbsp;" style="rounded=0;whiteSpace=wrap;html=1;strokeWidth=1.1810999999999998;strokeColor=#000000;fontSize=10;align=left;" parent="hmyyv367jjp7cWTAJNR_-29" vertex="1">
          <mxGeometry x="7.105427357601002e-15" width="118.11" height="59.055" as="geometry" />
        </mxCell>
        <mxCell id="hmyyv367jjp7cWTAJNR_-11" value="" style="shape=image;verticalLabelPosition=bottom;labelBackgroundColor=default;verticalAlign=top;aspect=fixed;imageAspect=0;image=data:image/png,iVBORw0KGgoAAAANSUhEUgAAAKcAAABLCAYAAAAVkJcVAAAAAXNSR0IArs4c6QAAAARnQU1BAACxjwv8YQUAAAAJcEhZcwAADsMAAA7DAcdvqGQAAAsPSURBVHhe7Z17iA1vGMdfWuXnlkspai2yubcKoeS6tORW61YW69aWpDYlKdcSin/ErmuLWhRRhH9sSEouoVyXXLKsP6zc/7DL/N7v6312352dc3bmzJlzZs8+n5pmzzuvM3NmvvO8z/O8Fy0siWCYENJS7xkmdLA4mdDC4mRCC4uTCS0sTia0sDiZ0JK0VNLRo0f1XwxTx7hx40TPnj3V30kTZ4sWLfRfDFPH1atXlUBBUsQJq7lkyRJ1EYsXL9alDCNEfn6+/itJ4oQwIdCSkpJ6F8MwJkkJiK5du6b2ZL4ZxomkWE7yN5NwaqYJkXDLSVaTm3OmMRIuzjdv3qj92LFj1Z5pnNu3b4vOnTuL/fv3i7dv34pBgwaJAwcO6KOpS8LFef36dbVnf9Mdv3//Fg8ePBCHDx8Wly9fFrt27RIXL14UBQUFukbqknCfs1evXsp6sr/pjVevXolp06apDMeIESN0aWqTlGadraZ3WrZsKVq3bq32zYWE/lLqsqTuKcYdFRUVYt++fWLgwIHi1q1borS0VHz79k0fTV2S8hq6CYYqKytFRkaGSjtduHBBlzY/IMScnByxatUqsWjRIrFu3TplQTt06KBrpDDwORNFfn4+HE3r9evXuiQ6d+/etdLT09U+GZw/f15db5s2bZJ2Dc2ZhFpOynG6bdY/fPggevfuLfr27atLEsOPHz+UXwxrhWv4+fOnGDp0qD7KJArf4oQ/NHfuXNX8SgsjiouLI0biCIa8JN+fPHmimvZ27drpkuCBMBEV47zIKXbr1k0fYRKNb3Fu3bpV5ObmipqaGnHkyBFx7tw5ZWnseB2/CZEgrzdgwABd8g/TF8UGC4e6JvY6SF5j9JO9nhMYsiXdDrFjxw5d0hD6/rZt24p79+6pMny/+TkWyGJH+23NCd/iPHjwoJg3b5749OmTShYXFhY6WjpYIeC2Z+j79+/iy5cvIjs7W5cI9eD79OkjVq5cqawz6gBEsoS9Dprl7du3K5E3ZoEhhN27dytRIPAgkZiiQx0cu3Llihg+fLjaQ5izZ8/21fxD8IjGp0yZoq5b+rgqt/n8+XNdoxkib4RvZBSpAoeRI0da8mbq0vrEEgxlZWVZUly65N95pLgtKUpd8q8MG2Gvg3/fo0cPFdw0BtXFdVJ9fA++D+XmtQBpXVVd7Amqj/Jom5vf4XTOVAG/z7wf5j0k4iJO8OvXL2vjxo3WqFGjLGnxdGkdMghSF+EWXKyTyJyEQGVOQnQSeSSczgHwfU4RO8rjISA6r/mwTKGmGvht5rPFfcX9tRuQuEXr//33n5gxY4aQIlWbnViCITRx1BTLB6iaO7OZh394586d2jKq0717d/UZ7NmzR3Ts2FG0b99el0QGddC9inM3BrkAcGdwXj/QdaMpxx7bsWPH9NHUAu7RmTNnxJo1a2qfLVwhuEW4n6aP7Uuc+KJZs2aJmzdvij9//iifs1OnTg2E4LVnCN8LHxV+IhLwO3fuVIKD/wcfD8BHQ6oHP8r086qqqmrFAl/w+PHjriN+1MELgZtn+pi4afAvKaWFsry8PLF58+ZavxP1EXjFAv02U+S49ubU+YBnjUBUWlNdIpFvacz8/fvXKisrs/r166eaoiFDhljS6uijdZC/WVJSoksah3wSs3mD2UcZbU5+iunLlJaWqubD3lw0Br7XPI95DfjbbOKprt2H9Ir9nE6/LRUgV8y8X1Rmd5F8idMt5G+6DYZiAQK0CySST/ju3Ttrzpw56pqkO2IVFRWpF41JDORj0ouIv9ETaH9+CREnXURQ0JtnWhu6AU4WaMWKFdapU6esmpoa68SJE9akSZPq3RQmsTg9PxC4OGXQooSJpj1I7G8jtsaaxo8fP1pr1661Ll26pEuYZIAWznSViMDFCT8TQvHibyYC8k2j5WaZ4KE4wikuiFsqKRJhnZaBVA1SXpMnT1Yprq9fv+ojTCJABgYZCmRCZLMupk+fro/UEfg0jbBPy0AKaNmyZaofnwd5hIvALWfYpmW4zc0yySeqOCEsr6OJTMI4LQODOFavXi2WL18u0tLSxN69e0VRUZGrJH1TBy8mDAUS/E0BR3FClFu2bFFNMtY1okHCsTI2RHPU4edMmDBBPH36VLka9+/fF/3799dHmTBRK05TkNjQNUcWj4Iar/Ac9eYBtDNmzBj14mPBBxoeCeA2YQgj5jw9fPhQl7oEvTZSiCqcpw05SaR+cAyf0cMTC9QzxIQDSnab3bF+Qa54/vz5qttaBpWWFGhtflmK1srMzFQaGDZsmPX582dV7hZM0q8VIERqR1o9dRzJdK/g3wWdfGfcE4Q4TSoqKqyMjAxr6tSpSrQTJ0608vLyLOnr6hreUJYzWoKcenggUi+Q6KOJE8d5i+8WjaDFWV1dbeXm5qqBQIWFhVZ2drbj2F63uGpzIUyvTTu5CmHrGWoOYKCLffCymw3ChYD9sG3bNvVdaM7RrPvBVZ4TAQ0FTG5BfcDBUOJBZwKCEvl8623oiUHmRFrOBsewISvjN6UmrabaI12HcbR+cCVOyot5yXl6naPONH3wQmzYsEH9jSjdL67ECYGR9XSb80Rd9FmHBfQGnTx5UnTt2lWlPBYsWMD96XFERuKqG3jhwoVi9OjRatYoLLUfXIkTbNq0Se3dzG0JY88Q3uTTp0+LZ8+eifLycrUga6z5W6Y+ECamy6Snp6u5QZjOgnlYWHDDD67FSUJzYznpofv1OeIJ5hmdPXtWrRCMToasrCzfb3Zz5/3790oXXbp0UUJEx02rVq3E+PHjlWDLysrEy5cv1aIbMQlVOsKucRuBywtW9YKcluGHR48eqQwEpms0J+KdSrpx44aVlpZmDR48uN7cMaSPcnJylAYwXvbx48f6iDc8iZN6jPBgo4E62MJIZWWlJX0j68WLF7qECSueFQRhQniReowSNS0jFqqqqqyCggLf+TcmMbj2OQlKK0UKjCi/iXxamKiurhbr168XS5cuVb6wbNrFoUOH9FEmjHgWJyXVIwVGYR2JhAUKsOgYFvtHKkn6ScppZ8JLTNM0MMYT6SLZhDcQYdinZTBNB8+WE1DT7tSdCWGGzWoGBeYfYWQ9LDE2TNqKBu4b1cUG9wLL6jARgOWMBafAyM1IpFSB5snTlNZoU1wphWMOrHAqY+oTk+UEZD2delnCFgwFAVavwyJeSDgD7PG7sQiYHSk+tUiVuWoeLRqGchxnGhKzOKnpNgeDJDMYCmopbCcwUQyDHHA+U2z4jEDR3lRjlBDuCaYf498C7PEZKzDzlOQIaAsaE/amnXqGEg2aRfR6lJeXq2YS0wTw2amJjQc0XtK+3A0+Oy0cRlDTT1tQ15cqxGw5AQ0GocAoWSORYLWQd83MzFRNJdZsx3qPTqtI2KHpsmag4rShDlm9WECwRP91jLzvao/P5B4xDfElTjwwbBCll7GeQQJRSuulBtS6AcJGUwzBRNtQh5rwSCsg4zPK7Qs0oJnH3HizCccen53cAOYfvsQJSJzIfYJkBkOwbPFaCjsa5F/C7zR9SLsfyvhEWgVf0GAQ2pI1Egl+58yZM5X/S34n0j3FxcW6Rnyxp46wN5fxM1NNuDZck+mPYo/P8RohlIr4FieQ1rNWnMkAD9gUBoSJa4EgIIygoPPQZgY49jwoCdSsz8KMTlxWmYPfhDwfgqGSkhJdyjD+8O1zAholT3uGiQdxEyeG6CMYYJh4EbfFYxGxA7aeTLwIfGVjhomVuDTrDBMELE4mtLA4mdDC4mRCC4uTCSlC/A/7HUAGoMFeygAAAABJRU5ErkJggg==;" parent="hmyyv367jjp7cWTAJNR_-29" vertex="1">
          <mxGeometry x="13.260000000000005" y="8.960000000000036" width="91.59" height="41.13" as="geometry" />
        </mxCell>
        <mxCell id="hmyyv367jjp7cWTAJNR_-14" value="" style="endArrow=classic;html=1;rounded=0;strokeWidth=1.1810999999999998;strokeColor=#000000;fontSize=10;" parent="WIyWlLk6GJQsqaUBKTNV-1" source="kNPgMg_u-2HI5fr7H4LX-6" target="hmyyv367jjp7cWTAJNR_-13" edge="1">
          <mxGeometry width="50" height="50" relative="1" as="geometry">
            <mxPoint x="389.5" y="-591" as="sourcePoint" />
            <mxPoint x="389.5" y="-401" as="targetPoint" />
          </mxGeometry>
        </mxCell>
        <mxCell id="hmyyv367jjp7cWTAJNR_-13" value="Вивід&lt;div&gt;&lt;span style=&quot;background-color: initial;&quot;&gt;row&lt;/span&gt;&lt;/div&gt;" style="shape=parallelogram;perimeter=parallelogramPerimeter;whiteSpace=wrap;html=1;fixedSize=1;strokeWidth=1.1810999999999998;strokeColor=#000000;fontSize=10;" parent="WIyWlLk6GJQsqaUBKTNV-1" vertex="1">
          <mxGeometry x="330" y="-554" width="118.11" height="59.055" as="geometry" />
        </mxCell>
        <mxCell id="hmyyv367jjp7cWTAJNR_-30" value="" style="endArrow=classic;html=1;rounded=0;strokeWidth=1.1810999999999998;strokeColor=#000000;fontSize=10;" parent="WIyWlLk6GJQsqaUBKTNV-1" source="kNPgMg_u-2HI5fr7H4LX-49" target="hmyyv367jjp7cWTAJNR_-31" edge="1">
          <mxGeometry width="50" height="50" relative="1" as="geometry">
            <mxPoint x="571.2550000000001" y="367.05500000000006" as="sourcePoint" />
            <mxPoint x="408.48999999999995" y="402" as="targetPoint" />
          </mxGeometry>
        </mxCell>
        <mxCell id="hmyyv367jjp7cWTAJNR_-31" value="&lt;span style=&quot;font-size: 10px;&quot;&gt;Завершення&lt;/span&gt;" style="rounded=1;whiteSpace=wrap;html=1;arcSize=50;" parent="WIyWlLk6GJQsqaUBKTNV-1" vertex="1">
          <mxGeometry x="330" y="307" width="118.11" height="59.055" as="geometry" />
        </mxCell>
        <mxCell id="YRZOW5KyqNtPnrEBrNmd-0" value="end = 5" style="rounded=0;whiteSpace=wrap;html=1;strokeWidth=1.1810999999999998;strokeColor=#000000;fontSize=10;" parent="WIyWlLk6GJQsqaUBKTNV-1" vertex="1">
          <mxGeometry x="330" y="-977" width="118.11" height="59.055" as="geometry" />
        </mxCell>
        <mxCell id="YRZOW5KyqNtPnrEBrNmd-1" value="" style="endArrow=classic;html=1;rounded=0;strokeWidth=1.1810999999999998;strokeColor=#000000;fontSize=10;" parent="WIyWlLk6GJQsqaUBKTNV-1" source="YRZOW5KyqNtPnrEBrNmd-0" target="YRZOW5KyqNtPnrEBrNmd-2" edge="1">
          <mxGeometry width="50" height="50" relative="1" as="geometry">
            <mxPoint x="389.45" y="-920.95" as="sourcePoint" />
            <mxPoint x="389.0050000000003" y="-891" as="targetPoint" />
          </mxGeometry>
        </mxCell>
        <mxCell id="YRZOW5KyqNtPnrEBrNmd-2" value="rowStep = 1" style="rounded=0;whiteSpace=wrap;html=1;strokeWidth=1.1810999999999998;strokeColor=#000000;fontSize=10;" parent="WIyWlLk6GJQsqaUBKTNV-1" vertex="1">
          <mxGeometry x="330" y="-893" width="118.11" height="59.055" as="geometry" />
        </mxCell>
        <mxCell id="YRZOW5KyqNtPnrEBrNmd-3" value="" style="endArrow=classic;html=1;rounded=0;strokeWidth=1.1810999999999998;strokeColor=#000000;fontSize=10;" parent="WIyWlLk6GJQsqaUBKTNV-1" source="YRZOW5KyqNtPnrEBrNmd-2" target="hmyyv367jjp7cWTAJNR_-2" edge="1">
          <mxGeometry width="50" height="50" relative="1" as="geometry">
            <mxPoint x="389.54" y="-835.95" as="sourcePoint" />
            <mxPoint x="389.0950000000003" y="-806" as="targetPoint" />
          </mxGeometry>
        </mxCell>
        <mxCell id="YRZOW5KyqNtPnrEBrNmd-4" value="" style="endArrow=classic;html=1;rounded=0;strokeWidth=1.1810999999999998;strokeColor=#000000;fontSize=10;" parent="WIyWlLk6GJQsqaUBKTNV-1" source="hmyyv367jjp7cWTAJNR_-8" target="hmyyv367jjp7cWTAJNR_-10" edge="1">
          <mxGeometry width="50" height="50" relative="1" as="geometry">
            <mxPoint x="412.90999999999997" y="-321.95000000000005" as="sourcePoint" />
            <mxPoint x="412.90999999999997" y="-295.95000000000005" as="targetPoint" />
          </mxGeometry>
        </mxCell>
        <mxCell id="YRZOW5KyqNtPnrEBrNmd-6" value="1" style="ellipse;whiteSpace=wrap;html=1;aspect=fixed;" parent="WIyWlLk6GJQsqaUBKTNV-1" vertex="1">
          <mxGeometry x="357.555" y="40" width="63" height="63" as="geometry" />
        </mxCell>
        <mxCell id="YRZOW5KyqNtPnrEBrNmd-8" value="1" style="ellipse;whiteSpace=wrap;html=1;aspect=fixed;" parent="WIyWlLk6GJQsqaUBKTNV-1" vertex="1">
          <mxGeometry x="357.555" y="-119" width="63" height="63" as="geometry" />
        </mxCell>
        <mxCell id="k-ficpD1I3Xbc577rdKE-0" value="" style="endArrow=classic;html=1;rounded=0;strokeWidth=1.1810999999999998;strokeColor=#000000;fontSize=10;" edge="1" parent="WIyWlLk6GJQsqaUBKTNV-1" source="YRZOW5KyqNtPnrEBrNmd-6" target="kNPgMg_u-2HI5fr7H4LX-26">
          <mxGeometry width="50" height="50" relative="1" as="geometry">
            <mxPoint x="392" y="199" as="sourcePoint" />
            <mxPoint x="392.0550000000003" y="230.00000000000045" as="targetPoint" />
          </mxGeometry>
        </mxCell>
      </root>
    </mxGraphModel>
  </diagram>
</mxfile>
